<svg xmlns="http://www.w3.org/2000/svg" viewBox="0 0 120 120">
  <defs>
    <linearGradient id="bubbleFill" x1="18%" y1="12%" x2="82%" y2="88%">
      <stop offset="0%" stop-color="#59B5FF" />
      <stop offset="48%" stop-color="#2C77B5" />
      <stop offset="100%" stop-color="#1F4F92" />
    </linearGradient>
    <linearGradient id="bubbleStroke" x1="24%" y1="0%" x2="76%" y2="100%">
      <stop offset="0%" stop-color="#7DCBFF" />
      <stop offset="100%" stop-color="#215F9A" />
    </linearGradient>
    <linearGradient id="arrowGradient" x1="28%" y1="22%" x2="72%" y2="78%">
      <stop offset="0%" stop-color="#FFFFFF" />
      <stop offset="100%" stop-color="#D7ECFF" />
    </linearGradient>
    <linearGradient id="highlightStroke" x1="34%" y1="26%" x2="78%" y2="62%">
      <stop offset="0%" stop-color="#FFFFFF" stop-opacity="0.75" />
      <stop offset="100%" stop-color="#FFFFFF" stop-opacity="0" />
    </linearGradient>
    <filter id="shadow" x="-15%" y="-15%" width="130%" height="130%" color-interpolation-filters="sRGB">
      <feDropShadow dx="0" dy="8" stdDeviation="6" flood-color="#1B3F6A" flood-opacity="0.16" />
    </filter>
  </defs>
  <g fill="none" filter="url(#shadow)">
    <path
      d="M60 12c25.405 0 46 18.923 46 42.28 0 11.198-4.955 21.32-13.166 28.973l-1.743 1.616 2.33 15.327a4 4 0 0 1-5.722 4.197l-15.613-7.267-3.097.21A50.771 50.771 0 0 1 60 96.562c-25.405 0-46-18.923-46-42.282C14 30.923 34.595 12 60 12Z"
      fill="url(#bubbleFill)"
      stroke="url(#bubbleStroke)"
      stroke-width="6"
      stroke-linejoin="round"
    />
    <path
      d="M35 44c6.2-11.6 18.4-19 32.3-19"
      stroke="url(#highlightStroke)"
      stroke-width="6"
      stroke-linecap="round"
      opacity="0.6"
    />
  </g>
  <path
    d="M44.5 60.164 80.512 41.4a2.4 2.4 0 0 1 3.426 2.57l-4.821 24.118a2.4 2.4 0 0 1-3.74 1.528l-8.665-6.093-10.04 10.626a2.4 2.4 0 0 1-4.092-2.047l1.631-11.82-8.597-2.118a2.4 2.4 0 0 1-0.064-4.38Z"
    fill="url(#arrowGradient)"
    stroke="#1F4F92"
    stroke-width="2.6"
    stroke-linejoin="round"
  />
</svg>

